<?xml version="1.0" encoding="UTF-8" standalone="no"?>
<svg
   version="1.1"
   width="50"
   height="50"
   id="svg4"
   sodipodi:docname="guest_img.svg"
   inkscape:version="1.2.1 (9c6d41e410, 2022-07-14)"
   inkscape:export-filename="guest_img.png"
   inkscape:export-xdpi="96"
   inkscape:export-ydpi="96"
   xmlns:inkscape="http://www.inkscape.org/namespaces/inkscape"
   xmlns:sodipodi="http://sodipodi.sourceforge.net/DTD/sodipodi-0.dtd"
   xmlns="http://www.w3.org/2000/svg"
   xmlns:svg="http://www.w3.org/2000/svg">
  <defs
     id="defs8" />
  <sodipodi:namedview
     id="namedview6"
     pagecolor="#000000"
     bordercolor="#000000"
     borderopacity="0.25"
     inkscape:showpageshadow="2"
     inkscape:pageopacity="0"
     inkscape:pagecheckerboard="0"
     inkscape:deskcolor="#d1d1d1"
     showgrid="false"
     inkscape:zoom="8.8830289"
     inkscape:cx="27.299247"
     inkscape:cy="39.907559"
     inkscape:window-width="1920"
     inkscape:window-height="991"
     inkscape:window-x="-9"
     inkscape:window-y="-9"
     inkscape:window-maximized="1"
     inkscape:current-layer="svg4" />
  <path
     d="m 34.607968,4.3506839 c 2.775919,2.249556 4.588485,5.331231 4.909331,8.7562261 0.09099,1.481055 0.05677,2.939024 -0.338028,4.380965 -0.01814,0.06745 -0.03628,0.134898 -0.05496,0.204391 -0.640691,2.294395 -1.903103,4.244503 -3.663348,5.949823 -0.07306,0.07543 -0.146117,0.150865 -0.22139,0.228583 -1.992546,1.979116 -4.918338,3.212443 -7.77861,3.630839 0.09907,0.01252 0.198134,0.02504 0.300204,0.03794 6.551474,0.84039 12.805837,2.9389 16.947155,7.990974 3.178725,3.99999 4.386442,8.653442 4.386442,13.562983 -15.84,0 -31.680001,0 -48.0000012,0 0,-2.684193 0,-2.684193 0.12676,-3.526938 0.02206,-0.152919 0.02206,-0.152919 0.04456,-0.308928 0.470576,-3.036132 1.522691,-6.146157 3.434309,-8.681178 0.08047,-0.111737 0.160933,-0.223474 0.243838,-0.338596 0.720364,-0.983675 1.562958,-1.839146 2.460387,-2.686357 0.0654,-0.06237 0.130794,-0.124746 0.198174,-0.189008 3.9805252,-3.753095 9.6455062,-5.246708 15.1257702,-5.860896 -0.190199,-0.03429 -0.190199,-0.03429 -0.384242,-0.06927 -3.692058,-0.693841 -7.035757,-2.567544 -9.200265,-5.465613 -2.147391,-3.003616 -3.069821,-6.657231 -2.300424,-10.22732 0.630912,-2.5744281 1.918121,-4.7597411 3.884931,-6.6641701 0.06739,-0.06898 0.134789,-0.137956 0.204225,-0.209025 5.131889,-5.06819002 14.17839,-4.81865102 19.675182,-0.515431 z"
     fill="#000000"
     id="path2"
     style="stroke-width:0.999998;fill:#ffffff" />
</svg>
