<?xml version="1.0" encoding="UTF-8" standalone="no"?>
<svg
   viewBox="0 0 1440 320"
   version="1.1"
   id="svg4"
   sodipodi:docname="wave.svg"
   inkscape:version="1.2.1 (9c6d41e410, 2022-07-14)"
   xmlns:inkscape="http://www.inkscape.org/namespaces/inkscape"
   xmlns:sodipodi="http://sodipodi.sourceforge.net/DTD/sodipodi-0.dtd"
   xmlns="http://www.w3.org/2000/svg"
   xmlns:svg="http://www.w3.org/2000/svg">
  <defs
     id="defs8">
    <inkscape:path-effect
       effect="powerstroke"
       id="path-effect355"
       is_visible="true"
       lpeversion="1"
       offset_points="0.19680627,7.7727768"
       not_jump="true"
       sort_points="true"
       interpolator_type="CentripetalCatmullRom"
       interpolator_beta="0.75"
       start_linecap_type="round"
       linejoin_type="spiro"
       miter_limit="4"
       scale_width="1"
       end_linecap_type="round" />
    <inkscape:path-effect
       effect="simplify"
       id="path-effect353"
       is_visible="true"
       lpeversion="1"
       steps="1"
       threshold="0.024151739"
       smooth_angles="0"
       helper_size="0"
       simplify_individual_paths="false"
       simplify_just_coalesce="false"
       step="1" />
  </defs>
  <sodipodi:namedview
     id="namedview6"
     pagecolor="#ffffff"
     bordercolor="#000000"
     borderopacity="0.25"
     inkscape:showpageshadow="2"
     inkscape:pageopacity="0.0"
     inkscape:pagecheckerboard="0"
     inkscape:deskcolor="#d1d1d1"
     showgrid="false"
     inkscape:zoom="0.45486111"
     inkscape:cx="720"
     inkscape:cy="104.42748"
     inkscape:window-width="1920"
     inkscape:window-height="991"
     inkscape:window-x="-9"
     inkscape:window-y="-9"
     inkscape:window-maximized="1"
     inkscape:current-layer="svg4" />
  <path
     id="path2"
     style="fill:#66bfbf;fill-opacity:1;stroke-width:0.999995"
     d="m 715.7919,71.205078 c -1.5e-4,0.05099 1.7e-4,0.103582 0,0.154297 -54.65264,1.614106 -109.09981,29.273235 -164.04729,48.404295 -60.64472,21.69996 -121.46715,31.69922 -182.64382,26.69922 -60.37871,-4.99999 -121.46716,-26.99922 -181.7572,-26.69922 -61.088,-0.3 -121.46703,21.70002 -152.498722,32 L 4.6997715,162.46289 v 128 h 30.4117745 152.232044 181.7572 182.64382 162.4351 7.96919 162.43511 182.64389 181.7571 152.2321 30.4118 v -128 l -30.1452,-10.69922 c -31.0316,-10.29998 -91.4107,-32.3 -152.4987,-32 -60.29,-0.3 -121.3784,21.69923 -181.7571,26.69922 -61.1768,5 -121.99917,-4.99926 -182.64389,-26.69922 -54.94731,-19.13106 -109.39468,-46.790189 -164.0473,-48.404295 -1.7e-4,-0.05071 1.7e-4,-0.103311 0,-0.154297 -0.79096,0.0011 -1.58154,0.06386 -2.3724,0.07617 -0.79086,-0.01231 -1.58145,-0.07512 -2.37241,-0.07617 z"
     inkscape:export-filename="wave.png"
     inkscape:export-xdpi="96"
     inkscape:export-ydpi="96" />
</svg>
